<svg width="32" height="64" viewBox="0 0 32 64" fill="none" xmlns="http://www.w3.org/2000/svg">
<path d="M6.3999 60.8H25.5999V60.8C25.5999 62.5673 24.1672 64 22.3999 64H9.5999C7.83259 64 6.3999 62.5673 6.3999 60.8V60.8Z" fill="#ABABAB"/>
<rect y="3.2" width="32" height="59.2" rx="5" fill="url(#paint0_angular_26_136)"/>
<rect x="11.2002" width="9.6" height="3.2" rx="1" fill="#ABABAB"/>
<g filter="url(#filter0_d_26_136)">
<path d="M8.18 37.12C7.64 37.12 7.13667 37.0333 6.67 36.86C6.21 36.68 5.81 36.4267 5.47 36.1C5.13 35.7733 4.86333 35.39 4.67 34.95C4.48333 34.51 4.39 34.0267 4.39 33.5C4.39 32.9733 4.48333 32.49 4.67 32.05C4.86333 31.61 5.13 31.2267 5.47 30.9C5.81667 30.5733 6.22 30.3233 6.68 30.15C7.14 29.97 7.64333 29.88 8.19 29.88C8.79667 29.88 9.34333 29.9867 9.83 30.2C10.3233 30.4067 10.7367 30.7133 11.07 31.12L10.03 32.08C9.79 31.8067 9.52333 31.6033 9.23 31.47C8.93667 31.33 8.61667 31.26 8.27 31.26C7.94333 31.26 7.64333 31.3133 7.37 31.42C7.09667 31.5267 6.86 31.68 6.66 31.88C6.46 32.08 6.30333 32.3167 6.19 32.59C6.08333 32.8633 6.03 33.1667 6.03 33.5C6.03 33.8333 6.08333 34.1367 6.19 34.41C6.30333 34.6833 6.46 34.92 6.66 35.12C6.86 35.32 7.09667 35.4733 7.37 35.58C7.64333 35.6867 7.94333 35.74 8.27 35.74C8.61667 35.74 8.93667 35.6733 9.23 35.54C9.52333 35.4 9.79 35.19 10.03 34.91L11.07 35.87C10.7367 36.2767 10.3233 36.5867 9.83 36.8C9.34333 37.0133 8.79333 37.12 8.18 37.12ZM15.3294 37.12C14.776 37.12 14.2627 37.03 13.7894 36.85C13.3227 36.67 12.916 36.4167 12.5694 36.09C12.2294 35.7633 11.9627 35.38 11.7694 34.94C11.5827 34.5 11.4894 34.02 11.4894 33.5C11.4894 32.98 11.5827 32.5 11.7694 32.06C11.9627 31.62 12.2327 31.2367 12.5794 30.91C12.926 30.5833 13.3327 30.33 13.7994 30.15C14.266 29.97 14.7727 29.88 15.3194 29.88C15.8727 29.88 16.3794 29.97 16.8394 30.15C17.306 30.33 17.7094 30.5833 18.0494 30.91C18.396 31.2367 18.666 31.62 18.8594 32.06C19.0527 32.4933 19.1494 32.9733 19.1494 33.5C19.1494 34.02 19.0527 34.5033 18.8594 34.95C18.666 35.39 18.396 35.7733 18.0494 36.1C17.7094 36.42 17.306 36.67 16.8394 36.85C16.3794 37.03 15.876 37.12 15.3294 37.12ZM15.3194 35.74C15.6327 35.74 15.9194 35.6867 16.1794 35.58C16.446 35.4733 16.6794 35.32 16.8794 35.12C17.0794 34.92 17.2327 34.6833 17.3394 34.41C17.4527 34.1367 17.5094 33.8333 17.5094 33.5C17.5094 33.1667 17.4527 32.8633 17.3394 32.59C17.2327 32.3167 17.0794 32.08 16.8794 31.88C16.686 31.68 16.456 31.5267 16.1894 31.42C15.9227 31.3133 15.6327 31.26 15.3194 31.26C15.006 31.26 14.716 31.3133 14.4494 31.42C14.1894 31.5267 13.9594 31.68 13.7594 31.88C13.5594 32.08 13.4027 32.3167 13.2894 32.59C13.1827 32.8633 13.1294 33.1667 13.1294 33.5C13.1294 33.8267 13.1827 34.13 13.2894 34.41C13.4027 34.6833 13.556 34.92 13.7494 35.12C13.9494 35.32 14.1827 35.4733 14.4494 35.58C14.716 35.6867 15.006 35.74 15.3194 35.74ZM24.9273 37L22.7473 33.63L24.0573 32.84L26.7673 37H24.9273ZM20.3773 37V30H21.9873V37H20.3773ZM21.5173 34.18V32.83H23.9573V34.18H21.5173ZM24.2073 33.68L22.7173 33.5L24.9873 30H26.6973L24.2073 33.68Z" fill="white"/>
</g>
<defs>
<filter id="filter0_d_26_136" x="0.390137" y="25.88" width="30.3774" height="15.24" filterUnits="userSpaceOnUse" color-interpolation-filters="sRGB">
<feFlood flood-opacity="0" result="BackgroundImageFix"/>
<feColorMatrix in="SourceAlpha" type="matrix" values="0 0 0 0 0 0 0 0 0 0 0 0 0 0 0 0 0 0 127 0" result="hardAlpha"/>
<feOffset/>
<feGaussianBlur stdDeviation="2"/>
<feComposite in2="hardAlpha" operator="out"/>
<feColorMatrix type="matrix" values="0 0 0 0 0 0 0 0 0 0 0 0 0 0 0 0 0 0 0.37 0"/>
<feBlend mode="normal" in2="BackgroundImageFix" result="effect1_dropShadow_26_136"/>
<feBlend mode="normal" in="SourceGraphic" in2="effect1_dropShadow_26_136" result="shape"/>
</filter>
<radialGradient id="paint0_angular_26_136" cx="0" cy="0" r="1" gradientUnits="userSpaceOnUse" gradientTransform="translate(16 32.8) rotate(90) scale(29.6 16)">
<stop stop-color="#D14646"/>
<stop offset="0.0001" stop-color="#C04444"/>
<stop offset="1" stop-color="#CD4F4F"/>
</radialGradient>
</defs>
</svg>
