<svg width="300" height="400" viewBox="0 0 300 400" fill="none" xmlns="http://www.w3.org/2000/svg">
<rect width="300" height="400" fill="#4F4429"/>
<rect x="10" y="10" width="280" height="380" fill="#856D30"/>
<path d="M21.9911 39.5067V24.1704H24.3805V22.1525H26.5044V20H28.7611V22.1525H30.7522V24.1704H32.8761V39.5067H35V43.4081H32.8761V47.9821H30.7522V50H24.3805V47.9821H21.9911V43.4081H20V39.5067H21.9911Z" fill="#943333" stroke="black"/>
<path d="M22.046 39.2263H24.3423M32.7992 39.2263H30.671M24.3423 24.1045V39.2263M24.3423 39.2263H30.671M30.671 24.1045V39.2263" stroke="black"/>
<path d="M51.9911 39.5067V24.1704H54.3805V22.1525H56.5044V20H58.7611V22.1525H60.7522V24.1704H62.8761V39.5067H65V43.4081H62.8761V47.9821H60.7522V50H54.3805V47.9821H51.9911V43.4081H50V39.5067H51.9911Z" fill="#943333" stroke="black"/>
<path d="M52.046 39.2263H54.3423M62.7992 39.2263H60.671M54.3423 24.1045V39.2263M54.3423 39.2263H60.671M60.671 24.1045V39.2263" stroke="black"/>
<path d="M81.9911 39.5067V24.1704H84.3805V22.1525H86.5044V20H88.7611V22.1525H90.7522V24.1704H92.8761V39.5067H95V43.4081H92.8761V47.9821H90.7522V50H84.3805V47.9821H81.9911V43.4081H80V39.5067H81.9911Z" fill="#943333" stroke="black"/>
<path d="M82.046 39.2263H84.3423M92.7992 39.2263H90.671M84.3423 24.1045V39.2263M84.3423 39.2263H90.671M90.671 24.1045V39.2263" stroke="black"/>
<path d="M111.991 39.5067V24.1704H114.381V22.1525H116.504V20H118.761V22.1525H120.752V24.1704H122.876V39.5067H125V43.4081H122.876V47.9821H120.752V50H114.381V47.9821H111.991V43.4081H110V39.5067H111.991Z" fill="#943333" stroke="black"/>
<path d="M112.046 39.2263H114.342M122.799 39.2263H120.671M114.342 24.1045V39.2263M114.342 39.2263H120.671M120.671 24.1045V39.2263" stroke="black"/>
<path d="M141.991 39.5067V24.1704H144.381V22.1525H146.504V20H148.761V22.1525H150.752V24.1704H152.876V39.5067H155V43.4081H152.876V47.9821H150.752V50H144.381V47.9821H141.991V43.4081H140V39.5067H141.991Z" fill="#943333" stroke="black"/>
<path d="M142.046 39.2263H144.342M152.799 39.2263H150.671M144.342 24.1045V39.2263M144.342 39.2263H150.671M150.671 24.1045V39.2263" stroke="black"/>
<path d="M171.991 39.5067V24.1704H174.381V22.1525H176.504V20H178.761V22.1525H180.752V24.1704H182.876V39.5067H185V43.4081H182.876V47.9821H180.752V50H174.381V47.9821H171.991V43.4081H170V39.5067H171.991Z" fill="#943333" stroke="black"/>
<path d="M172.046 39.2263H174.342M182.799 39.2263H180.671M174.342 24.1045V39.2263M174.342 39.2263H180.671M180.671 24.1045V39.2263" stroke="black"/>
<path d="M201.991 39.5067V24.1704H204.381V22.1525H206.504V20H208.761V22.1525H210.752V24.1704H212.876V39.5067H215V43.4081H212.876V47.9821H210.752V50H204.381V47.9821H201.991V43.4081H200V39.5067H201.991Z" fill="#943333" stroke="black"/>
<path d="M202.046 39.2263H204.342M212.799 39.2263H210.671M204.342 24.1045V39.2263M204.342 39.2263H210.671M210.671 24.1045V39.2263" stroke="black"/>
<path d="M231.991 39.5067V24.1704H234.381V22.1525H236.504V20H238.761V22.1525H240.752V24.1704H242.876V39.5067H245V43.4081H242.876V47.9821H240.752V50H234.381V47.9821H231.991V43.4081H230V39.5067H231.991Z" fill="#943333" stroke="black"/>
<path d="M232.046 39.2263H234.342M242.799 39.2263H240.671M234.342 24.1045V39.2263M234.342 39.2263H240.671M240.671 24.1045V39.2263" stroke="black"/>
<path d="M261.991 39.5067V24.1704H264.381V22.1525H266.504V20H268.761V22.1525H270.752V24.1704H272.876V39.5067H275V43.4081H272.876V47.9821H270.752V50H264.381V47.9821H261.991V43.4081H260V39.5067H261.991Z" fill="#943333" stroke="black"/>
<path d="M262.046 39.2263H264.342M272.799 39.2263H270.671M264.342 24.1045V39.2263M264.342 39.2263H270.671M270.671 24.1045V39.2263" stroke="black"/>
<path d="M21.9911 89.5067V74.1704H24.3805V72.1525H26.5044V70H28.7611V72.1525H30.7522V74.1704H32.8761V89.5067H35V93.4081H32.8761V97.9821H30.7522V100H24.3805V97.9821H21.9911V93.4081H20V89.5067H21.9911Z" fill="#943333" stroke="black"/>
<path d="M22.046 89.2263H24.3423M32.7992 89.2263H30.671M24.3423 74.1045V89.2263M24.3423 89.2263H30.671M30.671 74.1045V89.2263" stroke="black"/>
<path d="M51.9911 89.5067V74.1704H54.3805V72.1525H56.5044V70H58.7611V72.1525H60.7522V74.1704H62.8761V89.5067H65V93.4081H62.8761V97.9821H60.7522V100H54.3805V97.9821H51.9911V93.4081H50V89.5067H51.9911Z" fill="#943333" stroke="black"/>
<path d="M52.046 89.2263H54.3423M62.7992 89.2263H60.671M54.3423 74.1045V89.2263M54.3423 89.2263H60.671M60.671 74.1045V89.2263" stroke="black"/>
<path d="M81.9911 89.5067V74.1704H84.3805V72.1525H86.5044V70H88.7611V72.1525H90.7522V74.1704H92.8761V89.5067H95V93.4081H92.8761V97.9821H90.7522V100H84.3805V97.9821H81.9911V93.4081H80V89.5067H81.9911Z" fill="#943333" stroke="black"/>
<path d="M82.046 89.2263H84.3423M92.7992 89.2263H90.671M84.3423 74.1045V89.2263M84.3423 89.2263H90.671M90.671 74.1045V89.2263" stroke="black"/>
<path d="M111.991 89.5067V74.1704H114.381V72.1525H116.504V70H118.761V72.1525H120.752V74.1704H122.876V89.5067H125V93.4081H122.876V97.9821H120.752V100H114.381V97.9821H111.991V93.4081H110V89.5067H111.991Z" fill="#943333" stroke="black"/>
<path d="M112.046 89.2263H114.342M122.799 89.2263H120.671M114.342 74.1045V89.2263M114.342 89.2263H120.671M120.671 74.1045V89.2263" stroke="black"/>
<path d="M141.991 89.5067V74.1704H144.381V72.1525H146.504V70H148.761V72.1525H150.752V74.1704H152.876V89.5067H155V93.4081H152.876V97.9821H150.752V100H144.381V97.9821H141.991V93.4081H140V89.5067H141.991Z" fill="#943333" stroke="black"/>
<path d="M142.046 89.2263H144.342M152.799 89.2263H150.671M144.342 74.1045V89.2263M144.342 89.2263H150.671M150.671 74.1045V89.2263" stroke="black"/>
<path d="M171.991 89.5067V74.1704H174.381V72.1525H176.504V70H178.761V72.1525H180.752V74.1704H182.876V89.5067H185V93.4081H182.876V97.9821H180.752V100H174.381V97.9821H171.991V93.4081H170V89.5067H171.991Z" fill="#943333" stroke="black"/>
<path d="M172.046 89.2263H174.342M182.799 89.2263H180.671M174.342 74.1045V89.2263M174.342 89.2263H180.671M180.671 74.1045V89.2263" stroke="black"/>
<path d="M201.991 89.5067V74.1704H204.381V72.1525H206.504V70H208.761V72.1525H210.752V74.1704H212.876V89.5067H215V93.4081H212.876V97.9821H210.752V100H204.381V97.9821H201.991V93.4081H200V89.5067H201.991Z" fill="#943333" stroke="black"/>
<path d="M202.046 89.2263H204.342M212.799 89.2263H210.671M204.342 74.1045V89.2263M204.342 89.2263H210.671M210.671 74.1045V89.2263" stroke="black"/>
<path d="M231.991 89.5067V74.1704H234.381V72.1525H236.504V70H238.761V72.1525H240.752V74.1704H242.876V89.5067H245V93.4081H242.876V97.9821H240.752V100H234.381V97.9821H231.991V93.4081H230V89.5067H231.991Z" fill="#943333" stroke="black"/>
<path d="M232.046 89.2263H234.342M242.799 89.2263H240.671M234.342 74.1045V89.2263M234.342 89.2263H240.671M240.671 74.1045V89.2263" stroke="black"/>
<path d="M261.991 89.5067V74.1704H264.381V72.1525H266.504V70H268.761V72.1525H270.752V74.1704H272.876V89.5067H275V93.4081H272.876V97.9821H270.752V100H264.381V97.9821H261.991V93.4081H260V89.5067H261.991Z" fill="#943333" stroke="black"/>
<path d="M262.046 89.2263H264.342M272.799 89.2263H270.671M264.342 74.1045V89.2263M264.342 89.2263H270.671M270.671 74.1045V89.2263" stroke="black"/>
<path d="M21.9911 139.507V124.17H24.3805V122.152H26.5044V120H28.7611V122.152H30.7522V124.17H32.8761V139.507H35V143.408H32.8761V147.982H30.7522V150H24.3805V147.982H21.9911V143.408H20V139.507H21.9911Z" fill="#943333" stroke="black"/>
<path d="M22.046 139.226H24.3423M32.7992 139.226H30.671M24.3423 124.105V139.226M24.3423 139.226H30.671M30.671 124.105V139.226" stroke="black"/>
<path d="M51.9911 139.507V124.17H54.3805V122.152H56.5044V120H58.7611V122.152H60.7522V124.17H62.8761V139.507H65V143.408H62.8761V147.982H60.7522V150H54.3805V147.982H51.9911V143.408H50V139.507H51.9911Z" fill="#943333" stroke="black"/>
<path d="M52.046 139.226H54.3423M62.7992 139.226H60.671M54.3423 124.105V139.226M54.3423 139.226H60.671M60.671 124.105V139.226" stroke="black"/>
<path d="M81.9911 139.507V124.17H84.3805V122.152H86.5044V120H88.7611V122.152H90.7522V124.17H92.8761V139.507H95V143.408H92.8761V147.982H90.7522V150H84.3805V147.982H81.9911V143.408H80V139.507H81.9911Z" fill="#943333" stroke="black"/>
<path d="M82.046 139.226H84.3423M92.7992 139.226H90.671M84.3423 124.105V139.226M84.3423 139.226H90.671M90.671 124.105V139.226" stroke="black"/>
<path d="M111.991 139.507V124.17H114.381V122.152H116.504V120H118.761V122.152H120.752V124.17H122.876V139.507H125V143.408H122.876V147.982H120.752V150H114.381V147.982H111.991V143.408H110V139.507H111.991Z" fill="#943333" stroke="black"/>
<path d="M112.046 139.226H114.342M122.799 139.226H120.671M114.342 124.105V139.226M114.342 139.226H120.671M120.671 124.105V139.226" stroke="black"/>
<path d="M141.991 139.507V124.17H144.381V122.152H146.504V120H148.761V122.152H150.752V124.17H152.876V139.507H155V143.408H152.876V147.982H150.752V150H144.381V147.982H141.991V143.408H140V139.507H141.991Z" fill="#943333" stroke="black"/>
<path d="M142.046 139.226H144.342M152.799 139.226H150.671M144.342 124.105V139.226M144.342 139.226H150.671M150.671 124.105V139.226" stroke="black"/>
<path d="M171.991 139.507V124.17H174.381V122.152H176.504V120H178.761V122.152H180.752V124.17H182.876V139.507H185V143.408H182.876V147.982H180.752V150H174.381V147.982H171.991V143.408H170V139.507H171.991Z" fill="#943333" stroke="black"/>
<path d="M172.046 139.226H174.342M182.799 139.226H180.671M174.342 124.105V139.226M174.342 139.226H180.671M180.671 124.105V139.226" stroke="black"/>
<path d="M201.991 139.507V124.17H204.381V122.152H206.504V120H208.761V122.152H210.752V124.17H212.876V139.507H215V143.408H212.876V147.982H210.752V150H204.381V147.982H201.991V143.408H200V139.507H201.991Z" fill="#943333" stroke="black"/>
<path d="M202.046 139.226H204.342M212.799 139.226H210.671M204.342 124.105V139.226M204.342 139.226H210.671M210.671 124.105V139.226" stroke="black"/>
<path d="M231.991 139.507V124.17H234.381V122.152H236.504V120H238.761V122.152H240.752V124.17H242.876V139.507H245V143.408H242.876V147.982H240.752V150H234.381V147.982H231.991V143.408H230V139.507H231.991Z" fill="#943333" stroke="black"/>
<path d="M232.046 139.226H234.342M242.799 139.226H240.671M234.342 124.105V139.226M234.342 139.226H240.671M240.671 124.105V139.226" stroke="black"/>
<path d="M261.991 139.507V124.17H264.381V122.152H266.504V120H268.761V122.152H270.752V124.17H272.876V139.507H275V143.408H272.876V147.982H270.752V150H264.381V147.982H261.991V143.408H260V139.507H261.991Z" fill="#943333" stroke="black"/>
<path d="M262.046 139.226H264.342M272.799 139.226H270.671M264.342 124.105V139.226M264.342 139.226H270.671M270.671 124.105V139.226" stroke="black"/>
<path d="M21.9911 189.507V174.17H24.3805V172.152H26.5044V170H28.7611V172.152H30.7522V174.17H32.8761V189.507H35V193.408H32.8761V197.982H30.7522V200H24.3805V197.982H21.9911V193.408H20V189.507H21.9911Z" fill="#943333" stroke="black"/>
<path d="M22.046 189.226H24.3423M32.7992 189.226H30.671M24.3423 174.105V189.226M24.3423 189.226H30.671M30.671 174.105V189.226" stroke="black"/>
<path d="M51.9911 189.507V174.17H54.3805V172.152H56.5044V170H58.7611V172.152H60.7522V174.17H62.8761V189.507H65V193.408H62.8761V197.982H60.7522V200H54.3805V197.982H51.9911V193.408H50V189.507H51.9911Z" fill="#943333" stroke="black"/>
<path d="M52.046 189.226H54.3423M62.7992 189.226H60.671M54.3423 174.105V189.226M54.3423 189.226H60.671M60.671 174.105V189.226" stroke="black"/>
<path d="M81.9911 189.507V174.17H84.3805V172.152H86.5044V170H88.7611V172.152H90.7522V174.17H92.8761V189.507H95V193.408H92.8761V197.982H90.7522V200H84.3805V197.982H81.9911V193.408H80V189.507H81.9911Z" fill="#943333" stroke="black"/>
<path d="M82.046 189.226H84.3423M92.7992 189.226H90.671M84.3423 174.105V189.226M84.3423 189.226H90.671M90.671 174.105V189.226" stroke="black"/>
<path d="M111.991 189.507V174.17H114.381V172.152H116.504V170H118.761V172.152H120.752V174.17H122.876V189.507H125V193.408H122.876V197.982H120.752V200H114.381V197.982H111.991V193.408H110V189.507H111.991Z" fill="#943333" stroke="black"/>
<path d="M112.046 189.226H114.342M122.799 189.226H120.671M114.342 174.105V189.226M114.342 189.226H120.671M120.671 174.105V189.226" stroke="black"/>
<path d="M141.991 189.507V174.17H144.381V172.152H146.504V170H148.761V172.152H150.752V174.17H152.876V189.507H155V193.408H152.876V197.982H150.752V200H144.381V197.982H141.991V193.408H140V189.507H141.991Z" fill="#943333" stroke="black"/>
<path d="M142.046 189.226H144.342M152.799 189.226H150.671M144.342 174.105V189.226M144.342 189.226H150.671M150.671 174.105V189.226" stroke="black"/>
<path d="M171.991 189.507V174.17H174.381V172.152H176.504V170H178.761V172.152H180.752V174.17H182.876V189.507H185V193.408H182.876V197.982H180.752V200H174.381V197.982H171.991V193.408H170V189.507H171.991Z" fill="#943333" stroke="black"/>
<path d="M172.046 189.226H174.342M182.799 189.226H180.671M174.342 174.105V189.226M174.342 189.226H180.671M180.671 174.105V189.226" stroke="black"/>
<path d="M201.991 189.507V174.17H204.381V172.152H206.504V170H208.761V172.152H210.752V174.17H212.876V189.507H215V193.408H212.876V197.982H210.752V200H204.381V197.982H201.991V193.408H200V189.507H201.991Z" fill="#943333" stroke="black"/>
<path d="M202.046 189.226H204.342M212.799 189.226H210.671M204.342 174.105V189.226M204.342 189.226H210.671M210.671 174.105V189.226" stroke="black"/>
<path d="M231.991 189.507V174.17H234.381V172.152H236.504V170H238.761V172.152H240.752V174.17H242.876V189.507H245V193.408H242.876V197.982H240.752V200H234.381V197.982H231.991V193.408H230V189.507H231.991Z" fill="#943333" stroke="black"/>
<path d="M232.046 189.226H234.342M242.799 189.226H240.671M234.342 174.105V189.226M234.342 189.226H240.671M240.671 174.105V189.226" stroke="black"/>
<path d="M261.991 189.507V174.17H264.381V172.152H266.504V170H268.761V172.152H270.752V174.17H272.876V189.507H275V193.408H272.876V197.982H270.752V200H264.381V197.982H261.991V193.408H260V189.507H261.991Z" fill="#943333" stroke="black"/>
<path d="M262.046 189.226H264.342M272.799 189.226H270.671M264.342 174.105V189.226M264.342 189.226H270.671M270.671 174.105V189.226" stroke="black"/>
<path d="M21.9911 239.507V224.17H24.3805V222.152H26.5044V220H28.7611V222.152H30.7522V224.17H32.8761V239.507H35V243.408H32.8761V247.982H30.7522V250H24.3805V247.982H21.9911V243.408H20V239.507H21.9911Z" fill="#943333" stroke="black"/>
<path d="M22.046 239.226H24.3423M32.7992 239.226H30.671M24.3423 224.105V239.226M24.3423 239.226H30.671M30.671 224.105V239.226" stroke="black"/>
<path d="M51.9911 239.507V224.17H54.3805V222.152H56.5044V220H58.7611V222.152H60.7522V224.17H62.8761V239.507H65V243.408H62.8761V247.982H60.7522V250H54.3805V247.982H51.9911V243.408H50V239.507H51.9911Z" fill="#943333" stroke="black"/>
<path d="M52.046 239.226H54.3423M62.7992 239.226H60.671M54.3423 224.105V239.226M54.3423 239.226H60.671M60.671 224.105V239.226" stroke="black"/>
<path d="M81.9911 239.507V224.17H84.3805V222.152H86.5044V220H88.7611V222.152H90.7522V224.17H92.8761V239.507H95V243.408H92.8761V247.982H90.7522V250H84.3805V247.982H81.9911V243.408H80V239.507H81.9911Z" fill="#943333" stroke="black"/>
<path d="M82.046 239.226H84.3423M92.7992 239.226H90.671M84.3423 224.105V239.226M84.3423 239.226H90.671M90.671 224.105V239.226" stroke="black"/>
<path d="M111.991 239.507V224.17H114.381V222.152H116.504V220H118.761V222.152H120.752V224.17H122.876V239.507H125V243.408H122.876V247.982H120.752V250H114.381V247.982H111.991V243.408H110V239.507H111.991Z" fill="#943333" stroke="black"/>
<path d="M112.046 239.226H114.342M122.799 239.226H120.671M114.342 224.105V239.226M114.342 239.226H120.671M120.671 224.105V239.226" stroke="black"/>
<path d="M141.991 239.507V224.17H144.381V222.152H146.504V220H148.761V222.152H150.752V224.17H152.876V239.507H155V243.408H152.876V247.982H150.752V250H144.381V247.982H141.991V243.408H140V239.507H141.991Z" fill="#943333" stroke="black"/>
<path d="M142.046 239.226H144.342M152.799 239.226H150.671M144.342 224.105V239.226M144.342 239.226H150.671M150.671 224.105V239.226" stroke="black"/>
<path d="M171.991 239.507V224.17H174.381V222.152H176.504V220H178.761V222.152H180.752V224.17H182.876V239.507H185V243.408H182.876V247.982H180.752V250H174.381V247.982H171.991V243.408H170V239.507H171.991Z" fill="#943333" stroke="black"/>
<path d="M172.046 239.226H174.342M182.799 239.226H180.671M174.342 224.105V239.226M174.342 239.226H180.671M180.671 224.105V239.226" stroke="black"/>
<path d="M201.991 239.507V224.17H204.381V222.152H206.504V220H208.761V222.152H210.752V224.17H212.876V239.507H215V243.408H212.876V247.982H210.752V250H204.381V247.982H201.991V243.408H200V239.507H201.991Z" fill="#943333" stroke="black"/>
<path d="M202.046 239.226H204.342M212.799 239.226H210.671M204.342 224.105V239.226M204.342 239.226H210.671M210.671 224.105V239.226" stroke="black"/>
<path d="M231.991 239.507V224.17H234.381V222.152H236.504V220H238.761V222.152H240.752V224.17H242.876V239.507H245V243.408H242.876V247.982H240.752V250H234.381V247.982H231.991V243.408H230V239.507H231.991Z" fill="#943333" stroke="black"/>
<path d="M232.046 239.226H234.342M242.799 239.226H240.671M234.342 224.105V239.226M234.342 239.226H240.671M240.671 224.105V239.226" stroke="black"/>
<path d="M261.991 239.507V224.17H264.381V222.152H266.504V220H268.761V222.152H270.752V224.17H272.876V239.507H275V243.408H272.876V247.982H270.752V250H264.381V247.982H261.991V243.408H260V239.507H261.991Z" fill="#943333" stroke="black"/>
<path d="M262.046 239.226H264.342M272.799 239.226H270.671M264.342 224.105V239.226M264.342 239.226H270.671M270.671 224.105V239.226" stroke="black"/>
<path d="M21.9911 289.507V274.17H24.3805V272.152H26.5044V270H28.7611V272.152H30.7522V274.17H32.8761V289.507H35V293.408H32.8761V297.982H30.7522V300H24.3805V297.982H21.9911V293.408H20V289.507H21.9911Z" fill="#943333" stroke="black"/>
<path d="M22.046 289.226H24.3423M32.7992 289.226H30.671M24.3423 274.105V289.226M24.3423 289.226H30.671M30.671 274.105V289.226" stroke="black"/>
<path d="M51.9911 289.507V274.17H54.3805V272.152H56.5044V270H58.7611V272.152H60.7522V274.17H62.8761V289.507H65V293.408H62.8761V297.982H60.7522V300H54.3805V297.982H51.9911V293.408H50V289.507H51.9911Z" fill="#943333" stroke="black"/>
<path d="M52.046 289.226H54.3423M62.7992 289.226H60.671M54.3423 274.105V289.226M54.3423 289.226H60.671M60.671 274.105V289.226" stroke="black"/>
<path d="M81.9911 289.507V274.17H84.3805V272.152H86.5044V270H88.7611V272.152H90.7522V274.17H92.8761V289.507H95V293.408H92.8761V297.982H90.7522V300H84.3805V297.982H81.9911V293.408H80V289.507H81.9911Z" fill="#943333" stroke="black"/>
<path d="M82.046 289.226H84.3423M92.7992 289.226H90.671M84.3423 274.105V289.226M84.3423 289.226H90.671M90.671 274.105V289.226" stroke="black"/>
<path d="M111.991 289.507V274.17H114.381V272.152H116.504V270H118.761V272.152H120.752V274.17H122.876V289.507H125V293.408H122.876V297.982H120.752V300H114.381V297.982H111.991V293.408H110V289.507H111.991Z" fill="#943333" stroke="black"/>
<path d="M112.046 289.226H114.342M122.799 289.226H120.671M114.342 274.105V289.226M114.342 289.226H120.671M120.671 274.105V289.226" stroke="black"/>
<path d="M141.991 289.507V274.17H144.381V272.152H146.504V270H148.761V272.152H150.752V274.17H152.876V289.507H155V293.408H152.876V297.982H150.752V300H144.381V297.982H141.991V293.408H140V289.507H141.991Z" fill="#943333" stroke="black"/>
<path d="M142.046 289.226H144.342M152.799 289.226H150.671M144.342 274.105V289.226M144.342 289.226H150.671M150.671 274.105V289.226" stroke="black"/>
<path d="M171.991 289.507V274.17H174.381V272.152H176.504V270H178.761V272.152H180.752V274.17H182.876V289.507H185V293.408H182.876V297.982H180.752V300H174.381V297.982H171.991V293.408H170V289.507H171.991Z" fill="#943333" stroke="black"/>
<path d="M172.046 289.226H174.342M182.799 289.226H180.671M174.342 274.105V289.226M174.342 289.226H180.671M180.671 274.105V289.226" stroke="black"/>
<path d="M201.991 289.507V274.17H204.381V272.152H206.504V270H208.761V272.152H210.752V274.17H212.876V289.507H215V293.408H212.876V297.982H210.752V300H204.381V297.982H201.991V293.408H200V289.507H201.991Z" fill="#943333" stroke="black"/>
<path d="M202.046 289.226H204.342M212.799 289.226H210.671M204.342 274.105V289.226M204.342 289.226H210.671M210.671 274.105V289.226" stroke="black"/>
<path d="M231.991 289.507V274.17H234.381V272.152H236.504V270H238.761V272.152H240.752V274.17H242.876V289.507H245V293.408H242.876V297.982H240.752V300H234.381V297.982H231.991V293.408H230V289.507H231.991Z" fill="#943333" stroke="black"/>
<path d="M232.046 289.226H234.342M242.799 289.226H240.671M234.342 274.105V289.226M234.342 289.226H240.671M240.671 274.105V289.226" stroke="black"/>
<path d="M261.991 289.507V274.17H264.381V272.152H266.504V270H268.761V272.152H270.752V274.17H272.876V289.507H275V293.408H272.876V297.982H270.752V300H264.381V297.982H261.991V293.408H260V289.507H261.991Z" fill="#943333" stroke="black"/>
<path d="M262.046 289.226H264.342M272.799 289.226H270.671M264.342 274.105V289.226M264.342 289.226H270.671M270.671 274.105V289.226" stroke="black"/>
<path d="M21.9911 339.507V324.17H24.3805V322.152H26.5044V320H28.7611V322.152H30.7522V324.17H32.8761V339.507H35V343.408H32.8761V347.982H30.7522V350H24.3805V347.982H21.9911V343.408H20V339.507H21.9911Z" fill="#943333" stroke="black"/>
<path d="M22.046 339.226H24.3423M32.7992 339.226H30.671M24.3423 324.105V339.226M24.3423 339.226H30.671M30.671 324.105V339.226" stroke="black"/>
<path d="M51.9911 339.507V324.17H54.3805V322.152H56.5044V320H58.7611V322.152H60.7522V324.17H62.8761V339.507H65V343.408H62.8761V347.982H60.7522V350H54.3805V347.982H51.9911V343.408H50V339.507H51.9911Z" fill="#943333" stroke="black"/>
<path d="M52.046 339.226H54.3423M62.7992 339.226H60.671M54.3423 324.105V339.226M54.3423 339.226H60.671M60.671 324.105V339.226" stroke="black"/>
<path d="M81.9911 339.507V324.17H84.3805V322.152H86.5044V320H88.7611V322.152H90.7522V324.17H92.8761V339.507H95V343.408H92.8761V347.982H90.7522V350H84.3805V347.982H81.9911V343.408H80V339.507H81.9911Z" fill="#943333" stroke="black"/>
<path d="M82.046 339.226H84.3423M92.7992 339.226H90.671M84.3423 324.105V339.226M84.3423 339.226H90.671M90.671 324.105V339.226" stroke="black"/>
<path d="M111.991 339.507V324.17H114.381V322.152H116.504V320H118.761V322.152H120.752V324.17H122.876V339.507H125V343.408H122.876V347.982H120.752V350H114.381V347.982H111.991V343.408H110V339.507H111.991Z" fill="#943333" stroke="black"/>
<path d="M112.046 339.226H114.342M122.799 339.226H120.671M114.342 324.105V339.226M114.342 339.226H120.671M120.671 324.105V339.226" stroke="black"/>
<path d="M141.991 339.507V324.17H144.381V322.152H146.504V320H148.761V322.152H150.752V324.17H152.876V339.507H155V343.408H152.876V347.982H150.752V350H144.381V347.982H141.991V343.408H140V339.507H141.991Z" fill="#943333" stroke="black"/>
<path d="M142.046 339.226H144.342M152.799 339.226H150.671M144.342 324.105V339.226M144.342 339.226H150.671M150.671 324.105V339.226" stroke="black"/>
<path d="M171.991 339.507V324.17H174.381V322.152H176.504V320H178.761V322.152H180.752V324.17H182.876V339.507H185V343.408H182.876V347.982H180.752V350H174.381V347.982H171.991V343.408H170V339.507H171.991Z" fill="#943333" stroke="black"/>
<path d="M172.046 339.226H174.342M182.799 339.226H180.671M174.342 324.105V339.226M174.342 339.226H180.671M180.671 324.105V339.226" stroke="black"/>
<path d="M201.991 339.507V324.17H204.381V322.152H206.504V320H208.761V322.152H210.752V324.17H212.876V339.507H215V343.408H212.876V347.982H210.752V350H204.381V347.982H201.991V343.408H200V339.507H201.991Z" fill="#943333" stroke="black"/>
<path d="M202.046 339.226H204.342M212.799 339.226H210.671M204.342 324.105V339.226M204.342 339.226H210.671M210.671 324.105V339.226" stroke="black"/>
<path d="M231.991 339.507V324.17H234.381V322.152H236.504V320H238.761V322.152H240.752V324.17H242.876V339.507H245V343.408H242.876V347.982H240.752V350H234.381V347.982H231.991V343.408H230V339.507H231.991Z" fill="#943333" stroke="black"/>
<path d="M232.046 339.226H234.342M242.799 339.226H240.671M234.342 324.105V339.226M234.342 339.226H240.671M240.671 324.105V339.226" stroke="black"/>
<path d="M261.991 339.507V324.17H264.381V322.152H266.504V320H268.761V322.152H270.752V324.17H272.876V339.507H275V343.408H272.876V347.982H270.752V350H264.381V347.982H261.991V343.408H260V339.507H261.991Z" fill="#943333" stroke="black"/>
<path d="M262.046 339.226H264.342M272.799 339.226H270.671M264.342 324.105V339.226M264.342 339.226H270.671M270.671 324.105V339.226" stroke="black"/>
<path d="M257.931 60.4933V75.8296H255.542V77.8475H253.418V80H251.162V77.8475H249.17V75.8296H247.047V60.4933H244.923V56.5919H247.047V52.0179H249.17V50H255.542V52.0179H257.931V56.5919H259.923V60.4933H257.931Z" fill="#33943C" fill-opacity="0.78" stroke="black"/>
<path d="M257.877 60.7737H255.58M247.123 60.7737H249.252M255.58 75.8955V60.7737M255.58 60.7737H249.252M249.252 75.8955V60.7737" stroke="black"/>
<path d="M227.931 60.4933V75.8296H225.542V77.8475H223.418V80H221.162V77.8475H219.17V75.8296H217.047V60.4933H214.923V56.5919H217.047V52.0179H219.17V50H225.542V52.0179H227.931V56.5919H229.923V60.4933H227.931Z" fill="#33943C" fill-opacity="0.78" stroke="black"/>
<path d="M227.877 60.7737H225.58M217.123 60.7737H219.252M225.58 75.8955V60.7737M225.58 60.7737H219.252M219.252 75.8955V60.7737" stroke="black"/>
<path d="M197.931 60.4933V75.8296H195.542V77.8475H193.418V80H191.162V77.8475H189.17V75.8296H187.047V60.4933H184.923V56.5919H187.047V52.0179H189.17V50H195.542V52.0179H197.931V56.5919H199.923V60.4933H197.931Z" fill="#33943C" fill-opacity="0.78" stroke="black"/>
<path d="M197.877 60.7737H195.58M187.123 60.7737H189.252M195.58 75.8955V60.7737M195.58 60.7737H189.252M189.252 75.8955V60.7737" stroke="black"/>
<path d="M167.931 60.4933V75.8296H165.542V77.8475H163.418V80H161.162V77.8475H159.17V75.8296H157.047V60.4933H154.923V56.5919H157.047V52.0179H159.17V50H165.542V52.0179H167.931V56.5919H169.923V60.4933H167.931Z" fill="#33943C" fill-opacity="0.78" stroke="black"/>
<path d="M167.877 60.7737H165.58M157.123 60.7737H159.252M165.58 75.8955V60.7737M165.58 60.7737H159.252M159.252 75.8955V60.7737" stroke="black"/>
<path d="M137.931 60.4933V75.8296H135.542V77.8475H133.418V80H131.162V77.8475H129.17V75.8296H127.047V60.4933H124.923V56.5919H127.047V52.0179H129.17V50H135.542V52.0179H137.931V56.5919H139.923V60.4933H137.931Z" fill="#33943C" fill-opacity="0.78" stroke="black"/>
<path d="M137.877 60.7737H135.58M127.123 60.7737H129.252M135.58 75.8955V60.7737M135.58 60.7737H129.252M129.252 75.8955V60.7737" stroke="black"/>
<path d="M107.931 60.4933V75.8296H105.542V77.8475H103.418V80H101.162V77.8475H99.1704V75.8296H97.0465V60.4933H94.9226V56.5919H97.0465V52.0179H99.1704V50H105.542V52.0179H107.931V56.5919H109.923V60.4933H107.931Z" fill="#33943C" fill-opacity="0.78" stroke="black"/>
<path d="M107.877 60.7737H105.58M97.1234 60.7737H99.2517M105.58 75.8955V60.7737M105.58 60.7737H99.2517M99.2517 75.8955V60.7737" stroke="black"/>
<path d="M77.9315 60.4933V75.8296H75.5421V77.8475H73.4182V80H71.1616V77.8475H69.1704V75.8296H67.0465V60.4933H64.9226V56.5919H67.0465V52.0179H69.1704V50H75.5421V52.0179H77.9315V56.5919H79.9226V60.4933H77.9315Z" fill="#33943C" fill-opacity="0.78" stroke="black"/>
<path d="M77.8766 60.7737H75.5804M67.1234 60.7737H69.2516M75.5804 75.8955V60.7737M75.5804 60.7737H69.2516M69.2516 75.8955V60.7737" stroke="black"/>
<path d="M47.9315 60.4933V75.8296H45.5421V77.8475H43.4182V80H41.1616V77.8475H39.1704V75.8296H37.0465V60.4933H34.9226V56.5919H37.0465V52.0179H39.1704V50H45.5421V52.0179H47.9315V56.5919H49.9226V60.4933H47.9315Z" fill="#33943C" fill-opacity="0.78" stroke="black"/>
<path d="M47.8766 60.7737H45.5804M37.1234 60.7737H39.2516M45.5804 75.8955V60.7737M45.5804 60.7737H39.2516M39.2516 75.8955V60.7737" stroke="black"/>
<path d="M257.931 110.493V125.83H255.542V127.848H253.418V130H251.162V127.848H249.17V125.83H247.047V110.493H244.923V106.592H247.047V102.018H249.17V100H255.542V102.018H257.931V106.592H259.923V110.493H257.931Z" fill="#33943C" fill-opacity="0.78" stroke="black"/>
<path d="M257.877 110.774H255.58M247.123 110.774H249.252M255.58 125.895V110.774M255.58 110.774H249.252M249.252 125.895V110.774" stroke="black"/>
<path d="M227.931 110.493V125.83H225.542V127.848H223.418V130H221.162V127.848H219.17V125.83H217.047V110.493H214.923V106.592H217.047V102.018H219.17V100H225.542V102.018H227.931V106.592H229.923V110.493H227.931Z" fill="#33943C" fill-opacity="0.78" stroke="black"/>
<path d="M227.877 110.774H225.58M217.123 110.774H219.252M225.58 125.895V110.774M225.58 110.774H219.252M219.252 125.895V110.774" stroke="black"/>
<path d="M197.931 110.493V125.83H195.542V127.848H193.418V130H191.162V127.848H189.17V125.83H187.047V110.493H184.923V106.592H187.047V102.018H189.17V100H195.542V102.018H197.931V106.592H199.923V110.493H197.931Z" fill="#33943C" fill-opacity="0.78" stroke="black"/>
<path d="M197.877 110.774H195.58M187.123 110.774H189.252M195.58 125.895V110.774M195.58 110.774H189.252M189.252 125.895V110.774" stroke="black"/>
<path d="M167.931 110.493V125.83H165.542V127.848H163.418V130H161.162V127.848H159.17V125.83H157.047V110.493H154.923V106.592H157.047V102.018H159.17V100H165.542V102.018H167.931V106.592H169.923V110.493H167.931Z" fill="#33943C" fill-opacity="0.78" stroke="black"/>
<path d="M167.877 110.774H165.58M157.123 110.774H159.252M165.58 125.895V110.774M165.58 110.774H159.252M159.252 125.895V110.774" stroke="black"/>
<path d="M137.931 110.493V125.83H135.542V127.848H133.418V130H131.162V127.848H129.17V125.83H127.047V110.493H124.923V106.592H127.047V102.018H129.17V100H135.542V102.018H137.931V106.592H139.923V110.493H137.931Z" fill="#33943C" fill-opacity="0.78" stroke="black"/>
<path d="M137.877 110.774H135.58M127.123 110.774H129.252M135.58 125.895V110.774M135.58 110.774H129.252M129.252 125.895V110.774" stroke="black"/>
<path d="M107.931 110.493V125.83H105.542V127.848H103.418V130H101.162V127.848H99.1704V125.83H97.0465V110.493H94.9226V106.592H97.0465V102.018H99.1704V100H105.542V102.018H107.931V106.592H109.923V110.493H107.931Z" fill="#33943C" fill-opacity="0.78" stroke="black"/>
<path d="M107.877 110.774H105.58M97.1234 110.774H99.2517M105.58 125.895V110.774M105.58 110.774H99.2517M99.2517 125.895V110.774" stroke="black"/>
<path d="M77.9315 110.493V125.83H75.5421V127.848H73.4182V130H71.1616V127.848H69.1704V125.83H67.0465V110.493H64.9226V106.592H67.0465V102.018H69.1704V100H75.5421V102.018H77.9315V106.592H79.9226V110.493H77.9315Z" fill="#33943C" fill-opacity="0.78" stroke="black"/>
<path d="M77.8766 110.774H75.5804M67.1234 110.774H69.2516M75.5804 125.895V110.774M75.5804 110.774H69.2516M69.2516 125.895V110.774" stroke="black"/>
<path d="M47.9315 110.493V125.83H45.5421V127.848H43.4182V130H41.1616V127.848H39.1704V125.83H37.0465V110.493H34.9226V106.592H37.0465V102.018H39.1704V100H45.5421V102.018H47.9315V106.592H49.9226V110.493H47.9315Z" fill="#33943C" fill-opacity="0.78" stroke="black"/>
<path d="M47.8766 110.774H45.5804M37.1234 110.774H39.2516M45.5804 125.895V110.774M45.5804 110.774H39.2516M39.2516 125.895V110.774" stroke="black"/>
<path d="M257.931 160.493V175.83H255.542V177.848H253.418V180H251.162V177.848H249.17V175.83H247.047V160.493H244.923V156.592H247.047V152.018H249.17V150H255.542V152.018H257.931V156.592H259.923V160.493H257.931Z" fill="#33943C" fill-opacity="0.78" stroke="black"/>
<path d="M257.877 160.774H255.58M247.123 160.774H249.252M255.58 175.895V160.774M255.58 160.774H249.252M249.252 175.895V160.774" stroke="black"/>
<path d="M227.931 160.493V175.83H225.542V177.848H223.418V180H221.162V177.848H219.17V175.83H217.047V160.493H214.923V156.592H217.047V152.018H219.17V150H225.542V152.018H227.931V156.592H229.923V160.493H227.931Z" fill="#33943C" fill-opacity="0.78" stroke="black"/>
<path d="M227.877 160.774H225.58M217.123 160.774H219.252M225.58 175.895V160.774M225.58 160.774H219.252M219.252 175.895V160.774" stroke="black"/>
<path d="M197.931 160.493V175.83H195.542V177.848H193.418V180H191.162V177.848H189.17V175.83H187.047V160.493H184.923V156.592H187.047V152.018H189.17V150H195.542V152.018H197.931V156.592H199.923V160.493H197.931Z" fill="#33943C" fill-opacity="0.78" stroke="black"/>
<path d="M197.877 160.774H195.58M187.123 160.774H189.252M195.58 175.895V160.774M195.58 160.774H189.252M189.252 175.895V160.774" stroke="black"/>
<path d="M167.931 160.493V175.83H165.542V177.848H163.418V180H161.162V177.848H159.17V175.83H157.047V160.493H154.923V156.592H157.047V152.018H159.17V150H165.542V152.018H167.931V156.592H169.923V160.493H167.931Z" fill="#33943C" fill-opacity="0.78" stroke="black"/>
<path d="M167.877 160.774H165.58M157.123 160.774H159.252M165.58 175.895V160.774M165.58 160.774H159.252M159.252 175.895V160.774" stroke="black"/>
<path d="M137.931 160.493V175.83H135.542V177.848H133.418V180H131.162V177.848H129.17V175.83H127.047V160.493H124.923V156.592H127.047V152.018H129.17V150H135.542V152.018H137.931V156.592H139.923V160.493H137.931Z" fill="#33943C" fill-opacity="0.78" stroke="black"/>
<path d="M137.877 160.774H135.58M127.123 160.774H129.252M135.58 175.895V160.774M135.58 160.774H129.252M129.252 175.895V160.774" stroke="black"/>
<path d="M107.931 160.493V175.83H105.542V177.848H103.418V180H101.162V177.848H99.1704V175.83H97.0465V160.493H94.9226V156.592H97.0465V152.018H99.1704V150H105.542V152.018H107.931V156.592H109.923V160.493H107.931Z" fill="#33943C" fill-opacity="0.78" stroke="black"/>
<path d="M107.877 160.774H105.58M97.1234 160.774H99.2517M105.58 175.895V160.774M105.58 160.774H99.2517M99.2517 175.895V160.774" stroke="black"/>
<path d="M77.9315 160.493V175.83H75.5421V177.848H73.4182V180H71.1616V177.848H69.1704V175.83H67.0465V160.493H64.9226V156.592H67.0465V152.018H69.1704V150H75.5421V152.018H77.9315V156.592H79.9226V160.493H77.9315Z" fill="#33943C" fill-opacity="0.78" stroke="black"/>
<path d="M77.8766 160.774H75.5804M67.1234 160.774H69.2516M75.5804 175.895V160.774M75.5804 160.774H69.2516M69.2516 175.895V160.774" stroke="black"/>
<path d="M47.9315 160.493V175.83H45.5421V177.848H43.4182V180H41.1616V177.848H39.1704V175.83H37.0465V160.493H34.9226V156.592H37.0465V152.018H39.1704V150H45.5421V152.018H47.9315V156.592H49.9226V160.493H47.9315Z" fill="#33943C" fill-opacity="0.78" stroke="black"/>
<path d="M47.8766 160.774H45.5804M37.1234 160.774H39.2516M45.5804 175.895V160.774M45.5804 160.774H39.2516M39.2516 175.895V160.774" stroke="black"/>
<path d="M257.931 210.493V225.83H255.542V227.848H253.418V230H251.162V227.848H249.17V225.83H247.047V210.493H244.923V206.592H247.047V202.018H249.17V200H255.542V202.018H257.931V206.592H259.923V210.493H257.931Z" fill="#33943C" fill-opacity="0.78" stroke="black"/>
<path d="M257.877 210.774H255.58M247.123 210.774H249.252M255.58 225.895V210.774M255.58 210.774H249.252M249.252 225.895V210.774" stroke="black"/>
<path d="M227.931 210.493V225.83H225.542V227.848H223.418V230H221.162V227.848H219.17V225.83H217.047V210.493H214.923V206.592H217.047V202.018H219.17V200H225.542V202.018H227.931V206.592H229.923V210.493H227.931Z" fill="#33943C" fill-opacity="0.78" stroke="black"/>
<path d="M227.877 210.774H225.58M217.123 210.774H219.252M225.58 225.895V210.774M225.58 210.774H219.252M219.252 225.895V210.774" stroke="black"/>
<path d="M197.931 210.493V225.83H195.542V227.848H193.418V230H191.162V227.848H189.17V225.83H187.047V210.493H184.923V206.592H187.047V202.018H189.17V200H195.542V202.018H197.931V206.592H199.923V210.493H197.931Z" fill="#33943C" fill-opacity="0.78" stroke="black"/>
<path d="M197.877 210.774H195.58M187.123 210.774H189.252M195.58 225.895V210.774M195.58 210.774H189.252M189.252 225.895V210.774" stroke="black"/>
<path d="M167.931 210.493V225.83H165.542V227.848H163.418V230H161.162V227.848H159.17V225.83H157.047V210.493H154.923V206.592H157.047V202.018H159.17V200H165.542V202.018H167.931V206.592H169.923V210.493H167.931Z" fill="#33943C" fill-opacity="0.78" stroke="black"/>
<path d="M167.877 210.774H165.58M157.123 210.774H159.252M165.58 225.895V210.774M165.58 210.774H159.252M159.252 225.895V210.774" stroke="black"/>
<path d="M137.931 210.493V225.83H135.542V227.848H133.418V230H131.162V227.848H129.17V225.83H127.047V210.493H124.923V206.592H127.047V202.018H129.17V200H135.542V202.018H137.931V206.592H139.923V210.493H137.931Z" fill="#33943C" fill-opacity="0.78" stroke="black"/>
<path d="M137.877 210.774H135.58M127.123 210.774H129.252M135.58 225.895V210.774M135.58 210.774H129.252M129.252 225.895V210.774" stroke="black"/>
<path d="M107.931 210.493V225.83H105.542V227.848H103.418V230H101.162V227.848H99.1704V225.83H97.0465V210.493H94.9226V206.592H97.0465V202.018H99.1704V200H105.542V202.018H107.931V206.592H109.923V210.493H107.931Z" fill="#33943C" fill-opacity="0.78" stroke="black"/>
<path d="M107.877 210.774H105.58M97.1234 210.774H99.2517M105.58 225.895V210.774M105.58 210.774H99.2517M99.2517 225.895V210.774" stroke="black"/>
<path d="M77.9315 210.493V225.83H75.5421V227.848H73.4182V230H71.1616V227.848H69.1704V225.83H67.0465V210.493H64.9226V206.592H67.0465V202.018H69.1704V200H75.5421V202.018H77.9315V206.592H79.9226V210.493H77.9315Z" fill="#33943C" fill-opacity="0.78" stroke="black"/>
<path d="M77.8766 210.774H75.5804M67.1234 210.774H69.2516M75.5804 225.895V210.774M75.5804 210.774H69.2516M69.2516 225.895V210.774" stroke="black"/>
<path d="M47.9315 210.493V225.83H45.5421V227.848H43.4182V230H41.1616V227.848H39.1704V225.83H37.0465V210.493H34.9226V206.592H37.0465V202.018H39.1704V200H45.5421V202.018H47.9315V206.592H49.9226V210.493H47.9315Z" fill="#33943C" fill-opacity="0.78" stroke="black"/>
<path d="M47.8766 210.774H45.5804M37.1234 210.774H39.2516M45.5804 225.895V210.774M45.5804 210.774H39.2516M39.2516 225.895V210.774" stroke="black"/>
<path d="M257.931 260.493V275.83H255.542V277.848H253.418V280H251.162V277.848H249.17V275.83H247.047V260.493H244.923V256.592H247.047V252.018H249.17V250H255.542V252.018H257.931V256.592H259.923V260.493H257.931Z" fill="#33943C" fill-opacity="0.78" stroke="black"/>
<path d="M257.877 260.774H255.58M247.123 260.774H249.252M255.58 275.895V260.774M255.58 260.774H249.252M249.252 275.895V260.774" stroke="black"/>
<path d="M227.931 260.493V275.83H225.542V277.848H223.418V280H221.162V277.848H219.17V275.83H217.047V260.493H214.923V256.592H217.047V252.018H219.17V250H225.542V252.018H227.931V256.592H229.923V260.493H227.931Z" fill="#33943C" fill-opacity="0.78" stroke="black"/>
<path d="M227.877 260.774H225.58M217.123 260.774H219.252M225.58 275.895V260.774M225.58 260.774H219.252M219.252 275.895V260.774" stroke="black"/>
<path d="M197.931 260.493V275.83H195.542V277.848H193.418V280H191.162V277.848H189.17V275.83H187.047V260.493H184.923V256.592H187.047V252.018H189.17V250H195.542V252.018H197.931V256.592H199.923V260.493H197.931Z" fill="#33943C" fill-opacity="0.78" stroke="black"/>
<path d="M197.877 260.774H195.58M187.123 260.774H189.252M195.58 275.895V260.774M195.58 260.774H189.252M189.252 275.895V260.774" stroke="black"/>
<path d="M167.931 260.493V275.83H165.542V277.848H163.418V280H161.162V277.848H159.17V275.83H157.047V260.493H154.923V256.592H157.047V252.018H159.17V250H165.542V252.018H167.931V256.592H169.923V260.493H167.931Z" fill="#33943C" fill-opacity="0.78" stroke="black"/>
<path d="M167.877 260.774H165.58M157.123 260.774H159.252M165.58 275.895V260.774M165.58 260.774H159.252M159.252 275.895V260.774" stroke="black"/>
<path d="M137.931 260.493V275.83H135.542V277.848H133.418V280H131.162V277.848H129.17V275.83H127.047V260.493H124.923V256.592H127.047V252.018H129.17V250H135.542V252.018H137.931V256.592H139.923V260.493H137.931Z" fill="#33943C" fill-opacity="0.78" stroke="black"/>
<path d="M137.877 260.774H135.58M127.123 260.774H129.252M135.58 275.895V260.774M135.58 260.774H129.252M129.252 275.895V260.774" stroke="black"/>
<path d="M107.931 260.493V275.83H105.542V277.848H103.418V280H101.162V277.848H99.1704V275.83H97.0465V260.493H94.9226V256.592H97.0465V252.018H99.1704V250H105.542V252.018H107.931V256.592H109.923V260.493H107.931Z" fill="#33943C" fill-opacity="0.78" stroke="black"/>
<path d="M107.877 260.774H105.58M97.1234 260.774H99.2517M105.58 275.895V260.774M105.58 260.774H99.2517M99.2517 275.895V260.774" stroke="black"/>
<path d="M77.9315 260.493V275.83H75.5421V277.848H73.4182V280H71.1616V277.848H69.1704V275.83H67.0465V260.493H64.9226V256.592H67.0465V252.018H69.1704V250H75.5421V252.018H77.9315V256.592H79.9226V260.493H77.9315Z" fill="#33943C" fill-opacity="0.78" stroke="black"/>
<path d="M77.8766 260.774H75.5804M67.1234 260.774H69.2516M75.5804 275.895V260.774M75.5804 260.774H69.2516M69.2516 275.895V260.774" stroke="black"/>
<path d="M47.9315 260.493V275.83H45.5421V277.848H43.4182V280H41.1616V277.848H39.1704V275.83H37.0465V260.493H34.9226V256.592H37.0465V252.018H39.1704V250H45.5421V252.018H47.9315V256.592H49.9226V260.493H47.9315Z" fill="#33943C" fill-opacity="0.78" stroke="black"/>
<path d="M47.8766 260.774H45.5804M37.1234 260.774H39.2516M45.5804 275.895V260.774M45.5804 260.774H39.2516M39.2516 275.895V260.774" stroke="black"/>
<path d="M257.931 310.493V325.83H255.542V327.848H253.418V330H251.162V327.848H249.17V325.83H247.047V310.493H244.923V306.592H247.047V302.018H249.17V300H255.542V302.018H257.931V306.592H259.923V310.493H257.931Z" fill="#33943C" fill-opacity="0.78" stroke="black"/>
<path d="M257.877 310.774H255.58M247.123 310.774H249.252M255.58 325.895V310.774M255.58 310.774H249.252M249.252 325.895V310.774" stroke="black"/>
<path d="M227.931 310.493V325.83H225.542V327.848H223.418V330H221.162V327.848H219.17V325.83H217.047V310.493H214.923V306.592H217.047V302.018H219.17V300H225.542V302.018H227.931V306.592H229.923V310.493H227.931Z" fill="#33943C" fill-opacity="0.78" stroke="black"/>
<path d="M227.877 310.774H225.58M217.123 310.774H219.252M225.58 325.895V310.774M225.58 310.774H219.252M219.252 325.895V310.774" stroke="black"/>
<path d="M197.931 310.493V325.83H195.542V327.848H193.418V330H191.162V327.848H189.17V325.83H187.047V310.493H184.923V306.592H187.047V302.018H189.17V300H195.542V302.018H197.931V306.592H199.923V310.493H197.931Z" fill="#33943C" fill-opacity="0.78" stroke="black"/>
<path d="M197.877 310.774H195.58M187.123 310.774H189.252M195.58 325.895V310.774M195.58 310.774H189.252M189.252 325.895V310.774" stroke="black"/>
<path d="M167.931 310.493V325.83H165.542V327.848H163.418V330H161.162V327.848H159.17V325.83H157.047V310.493H154.923V306.592H157.047V302.018H159.17V300H165.542V302.018H167.931V306.592H169.923V310.493H167.931Z" fill="#33943C" fill-opacity="0.78" stroke="black"/>
<path d="M167.877 310.774H165.58M157.123 310.774H159.252M165.58 325.895V310.774M165.58 310.774H159.252M159.252 325.895V310.774" stroke="black"/>
<path d="M137.931 310.493V325.83H135.542V327.848H133.418V330H131.162V327.848H129.17V325.83H127.047V310.493H124.923V306.592H127.047V302.018H129.17V300H135.542V302.018H137.931V306.592H139.923V310.493H137.931Z" fill="#33943C" fill-opacity="0.78" stroke="black"/>
<path d="M137.877 310.774H135.58M127.123 310.774H129.252M135.58 325.895V310.774M135.58 310.774H129.252M129.252 325.895V310.774" stroke="black"/>
<path d="M107.931 310.493V325.83H105.542V327.848H103.418V330H101.162V327.848H99.1704V325.83H97.0465V310.493H94.9226V306.592H97.0465V302.018H99.1704V300H105.542V302.018H107.931V306.592H109.923V310.493H107.931Z" fill="#33943C" fill-opacity="0.78" stroke="black"/>
<path d="M107.877 310.774H105.58M97.1234 310.774H99.2517M105.58 325.895V310.774M105.58 310.774H99.2517M99.2517 325.895V310.774" stroke="black"/>
<path d="M77.9315 310.493V325.83H75.5421V327.848H73.4182V330H71.1616V327.848H69.1704V325.83H67.0465V310.493H64.9226V306.592H67.0465V302.018H69.1704V300H75.5421V302.018H77.9315V306.592H79.9226V310.493H77.9315Z" fill="#33943C" fill-opacity="0.78" stroke="black"/>
<path d="M77.8766 310.774H75.5804M67.1234 310.774H69.2516M75.5804 325.895V310.774M75.5804 310.774H69.2516M69.2516 325.895V310.774" stroke="black"/>
<path d="M47.9315 310.493V325.83H45.5421V327.848H43.4182V330H41.1616V327.848H39.1704V325.83H37.0465V310.493H34.9226V306.592H37.0465V302.018H39.1704V300H45.5421V302.018H47.9315V306.592H49.9226V310.493H47.9315Z" fill="#33943C" fill-opacity="0.78" stroke="black"/>
<path d="M47.8766 310.774H45.5804M37.1234 310.774H39.2516M45.5804 325.895V310.774M45.5804 310.774H39.2516M39.2516 325.895V310.774" stroke="black"/>
<path d="M257.931 360.493V375.83H255.542V377.848H253.418V380H251.162V377.848H249.17V375.83H247.047V360.493H244.923V356.592H247.047V352.018H249.17V350H255.542V352.018H257.931V356.592H259.923V360.493H257.931Z" fill="#33943C" fill-opacity="0.78" stroke="black"/>
<path d="M257.877 360.774H255.58M247.123 360.774H249.252M255.58 375.895V360.774M255.58 360.774H249.252M249.252 375.895V360.774" stroke="black"/>
<path d="M227.931 360.493V375.83H225.542V377.848H223.418V380H221.162V377.848H219.17V375.83H217.047V360.493H214.923V356.592H217.047V352.018H219.17V350H225.542V352.018H227.931V356.592H229.923V360.493H227.931Z" fill="#33943C" fill-opacity="0.78" stroke="black"/>
<path d="M227.877 360.774H225.58M217.123 360.774H219.252M225.58 375.895V360.774M225.58 360.774H219.252M219.252 375.895V360.774" stroke="black"/>
<path d="M197.931 360.493V375.83H195.542V377.848H193.418V380H191.162V377.848H189.17V375.83H187.047V360.493H184.923V356.592H187.047V352.018H189.17V350H195.542V352.018H197.931V356.592H199.923V360.493H197.931Z" fill="#33943C" fill-opacity="0.78" stroke="black"/>
<path d="M197.877 360.774H195.58M187.123 360.774H189.252M195.58 375.895V360.774M195.58 360.774H189.252M189.252 375.895V360.774" stroke="black"/>
<path d="M167.931 360.493V375.83H165.542V377.848H163.418V380H161.162V377.848H159.17V375.83H157.047V360.493H154.923V356.592H157.047V352.018H159.17V350H165.542V352.018H167.931V356.592H169.923V360.493H167.931Z" fill="#33943C" fill-opacity="0.78" stroke="black"/>
<path d="M167.877 360.774H165.58M157.123 360.774H159.252M165.58 375.895V360.774M165.58 360.774H159.252M159.252 375.895V360.774" stroke="black"/>
<path d="M137.931 360.493V375.83H135.542V377.848H133.418V380H131.162V377.848H129.17V375.83H127.047V360.493H124.923V356.592H127.047V352.018H129.17V350H135.542V352.018H137.931V356.592H139.923V360.493H137.931Z" fill="#33943C" fill-opacity="0.78" stroke="black"/>
<path d="M137.877 360.774H135.58M127.123 360.774H129.252M135.58 375.895V360.774M135.58 360.774H129.252M129.252 375.895V360.774" stroke="black"/>
<path d="M107.931 360.493V375.83H105.542V377.848H103.418V380H101.162V377.848H99.1704V375.83H97.0465V360.493H94.9226V356.592H97.0465V352.018H99.1704V350H105.542V352.018H107.931V356.592H109.923V360.493H107.931Z" fill="#33943C" fill-opacity="0.78" stroke="black"/>
<path d="M107.877 360.774H105.58M97.1234 360.774H99.2517M105.58 375.895V360.774M105.58 360.774H99.2517M99.2517 375.895V360.774" stroke="black"/>
<path d="M77.9315 360.493V375.83H75.5421V377.848H73.4182V380H71.1616V377.848H69.1704V375.83H67.0465V360.493H64.9226V356.592H67.0465V352.018H69.1704V350H75.5421V352.018H77.9315V356.592H79.9226V360.493H77.9315Z" fill="#33943C" fill-opacity="0.78" stroke="black"/>
<path d="M77.8766 360.774H75.5804M67.1234 360.774H69.2516M75.5804 375.895V360.774M75.5804 360.774H69.2516M69.2516 375.895V360.774" stroke="black"/>
<path d="M47.9315 360.493V375.83H45.5421V377.848H43.4182V380H41.1616V377.848H39.1704V375.83H37.0465V360.493H34.9226V356.592H37.0465V352.018H39.1704V350H45.5421V352.018H47.9315V356.592H49.9226V360.493H47.9315Z" fill="#33943C" fill-opacity="0.78" stroke="black"/>
<path d="M47.8766 360.774H45.5804M37.1234 360.774H39.2516M45.5804 375.895V360.774M45.5804 360.774H39.2516M39.2516 375.895V360.774" stroke="black"/>
</svg>
