<svg width="114" height="40" viewBox="0 0 114 40" fill="none" xmlns="http://www.w3.org/2000/svg">
<rect x="9.57446" width="35.4255" height="5" fill="white"/>
<rect x="4.78723" y="8" width="35.4255" height="5" fill="white"/>
<rect y="16" width="35.4255" height="5" fill="white"/>
<path d="M50.168 32V9.6H60.184C62.7013 9.6 64.664 10.1013 66.072 11.104C67.48 12.0853 68.184 13.504 68.184 15.36C68.184 17.1947 67.512 18.6133 66.168 19.616C64.824 20.5973 63.0533 21.088 60.856 21.088L61.432 19.936C63.928 19.936 65.8587 20.4373 67.224 21.44C68.5893 22.4427 69.272 23.8933 69.272 25.792C69.272 27.7333 68.5573 29.2587 67.128 30.368C65.6987 31.456 63.5867 32 60.792 32H50.168ZM54.264 28.8H60.664C62.1147 28.8 63.2133 28.5333 63.96 28C64.7067 27.4453 65.08 26.6027 65.08 25.472C65.08 24.3413 64.7067 23.52 63.96 23.008C63.2133 22.4747 62.1147 22.208 60.664 22.208H54.264V28.8ZM54.264 19.168H59.832C61.176 19.168 62.2 18.9013 62.904 18.368C63.608 17.8133 63.96 17.024 63.96 16C63.96 14.9333 63.608 14.1333 62.904 13.6C62.2 13.0667 61.176 12.8 59.832 12.8H54.264V19.168ZM78.4025 32V12.096L79.3945 13.12H71.0105V9.6H89.9545V13.12H81.5705L82.5305 12.096V32H78.4025ZM93.5743 32V9.6H111.014V13.024H97.6703V18.528H104.294C106.982 18.528 109.02 19.0933 110.406 20.224C111.814 21.3333 112.518 22.9547 112.518 25.088C112.518 27.2853 111.74 28.992 110.182 30.208C108.646 31.4027 106.47 32 103.654 32H93.5743ZM97.6703 28.8H103.43C105.03 28.8 106.246 28.4907 107.078 27.872C107.91 27.2533 108.326 26.3573 108.326 25.184C108.326 22.88 106.694 21.728 103.43 21.728H97.6703V28.8Z" fill="white"/>
</svg>
