<svg width="218" height="305" viewBox="0 0 218 305" fill="none" xmlns="http://www.w3.org/2000/svg">
<ellipse cx="132.316" cy="290.774" rx="84.7854" ry="14.2257" fill="black" fill-opacity="0.37"/>
<path d="M173.189 143.116H209.82V244.916C209.82 255.031 201.62 263.231 191.505 263.231C181.389 263.231 173.189 255.031 173.189 244.916V143.116Z" fill="#181818"/>
<path d="M71.4199 10.3186L107.95 37.8459L65.8456 55.7181L71.4199 10.3186Z" fill="#100505"/>
<path d="M79.2485 29.292L89.2733 36.6662L77.8747 41.6608L79.2485 29.292Z" fill="white"/>
<path d="M183.208 11.1704L146.678 38.6978L188.783 56.57L183.208 11.1704Z" fill="#100505"/>
<path d="M175.38 30.1439L165.355 37.5181L176.754 42.5127L175.38 30.1439Z" fill="white"/>
<path d="M47.111 108.615C47.111 63.684 83.5347 27.2602 128.466 27.2602C173.397 27.2602 209.82 63.6839 209.82 108.615V196.934C209.82 221.787 189.673 241.934 164.82 241.934H47.111V108.615Z" fill="#100505"/>
<path d="M47.111 143.116H83.7418V244.916C83.7418 255.031 75.5417 263.231 65.4264 263.231C55.3111 263.231 47.111 255.031 47.111 244.916V143.116Z" fill="#100505"/>
<path d="M82.0382 234.267H128.04V268.342C128.04 281.045 117.742 291.343 105.039 291.343C92.336 291.343 82.0382 281.045 82.0382 268.342V234.267Z" fill="#100505"/>
<path d="M133.151 234.267H179.152V268.342C179.152 281.045 168.855 291.343 156.152 291.343C143.449 291.343 133.151 281.045 133.151 268.342V234.267Z" fill="#100505"/>
<rect x="114.41" y="161.857" width="67.2986" height="67.2986" rx="33.6493" fill="white" fill-opacity="0.04"/>
<ellipse cx="118.669" cy="106.059" rx="8.51881" ry="12.3523" transform="rotate(-5 118.669 106.059)" fill="white"/>
<ellipse cx="171.678" cy="105.903" rx="8.51881" ry="12.3523" transform="rotate(5 171.678 105.903)" fill="white"/>
<ellipse cx="146.781" cy="132.467" rx="23.8527" ry="18.3154" fill="#D9D9D9"/>
<ellipse cx="148.059" cy="124.801" rx="6.38911" ry="4.68535" fill="#454545"/>
<path d="M155.3 140.713C155.3 142.511 152.058 143.968 148.059 143.968C144.06 143.968 140.818 142.511 140.818 140.713C140.818 138.915 144.06 140.079 148.059 140.079C152.058 140.079 155.3 138.915 155.3 140.713Z" fill="white"/>
<rect x="106.921" y="84.3362" width="21.297" height="5.11129" rx="2.55564" transform="rotate(2 106.921 84.3362)" fill="#D9D9D9"/>
<rect width="21.297" height="5.11129" rx="2.55564" transform="matrix(-0.999391 0.0348995 0.0348995 0.999391 183.399 84.3362)" fill="#D9D9D9"/>
<path d="M45.0384 208.319L48.4341 211.272L48.5726 211.113L48.6955 210.941L45.0384 208.319ZM9.24182 195.317C8.41212 192.974 5.84038 191.747 3.49769 192.577C1.15499 193.407 -0.0715265 195.979 0.758177 198.321L9.24182 195.317ZM86.3275 197.356C81.9532 194.385 74.59 191.289 66.3316 191.511C57.8127 191.74 48.6871 195.507 41.3813 205.697L48.6955 210.941C54.3383 203.071 60.8305 200.662 66.5735 200.508C72.577 200.347 78.1198 202.661 81.2705 204.801L86.3275 197.356ZM41.6427 205.367C37.7022 209.898 31.7264 214.018 26.1756 214.01C21.466 214.003 14.7555 210.885 9.24182 195.317L0.758177 198.321C6.83012 215.466 15.8793 222.995 26.1629 223.01C35.6052 223.023 43.8558 216.537 48.4341 211.272L41.6427 205.367Z" fill="#100505"/>
</svg>
